<svg width="16" height="28" viewBox="0 0 16 28" fill="none" xmlns="http://www.w3.org/2000/svg">
<path d="M9.68468 27.5703H5.2609C4.52199 27.5703 3.92091 26.9704 3.92091 26.2329V16.2744H1.33999C0.601077 16.2744 0 15.6743 0 14.937V10.6697C0 9.93227 0.601077 9.33237 1.33999 9.33237H3.92091V7.19548C3.92091 5.07667 4.58754 3.27402 5.84849 1.98271C7.11514 0.685514 8.88528 0 10.9676 0L14.3413 0.00546894C15.079 0.00673104 15.679 0.606635 15.679 1.34284V5.3049C15.679 6.04237 15.0782 6.64227 14.3394 6.64227L12.0679 6.64311C11.3752 6.64311 11.1988 6.78173 11.161 6.82422C11.0989 6.89468 11.0249 7.09388 11.0249 7.64393V9.33216H14.1687C14.4054 9.33216 14.6347 9.39042 14.8318 9.50023C15.2569 9.73728 15.5212 10.1855 15.5212 10.67L15.5195 14.9372C15.5195 15.6743 14.9184 16.2742 14.1795 16.2742H11.0249V26.2329C11.0249 26.9704 10.4236 27.5703 9.68468 27.5703ZM5.54037 25.954H9.40522V15.5508C9.40522 15.0584 9.80671 14.6579 10.2999 14.6579H13.9L13.9015 10.9487H10.2997C9.8065 10.9487 9.40522 10.5482 9.40522 10.0557V7.64393C9.40522 7.01248 9.4695 6.29436 9.94707 5.75461C10.5241 5.10212 11.4335 5.02682 12.0675 5.02682L14.0596 5.02598V1.62134L10.9663 1.61629C7.6199 1.61629 5.54037 3.75423 5.54037 7.19548V10.0557C5.54037 10.548 5.13909 10.9487 4.64592 10.9487H1.61945V14.6579H4.64592C5.13909 14.6579 5.54037 15.0584 5.54037 15.5508V25.954ZM14.3382 1.62176H14.3384H14.3382Z" fill="white"/>
</svg>
