<svg width="24" height="26" viewBox="0 0 24 26" fill="none" xmlns="http://www.w3.org/2000/svg">
<path d="M13.076 25.396C10.796 25.396 8.708 24.856 6.812 23.776C4.94 22.696 3.452 21.22 2.348 19.348C1.268 17.476 0.728 15.4 0.728 13.12C0.728 10.84 1.268 8.764 2.348 6.892C3.452 5.02 4.94 3.544 6.812 2.464C8.708 1.384 10.796 0.844 13.076 0.844C15.092 0.844 16.928 1.276 18.584 2.14C20.264 2.98 21.656 4.168 22.76 5.704L20.636 7.36C19.724 6.112 18.632 5.152 17.36 4.48C16.088 3.784 14.66 3.436 13.076 3.436C11.276 3.436 9.656 3.856 8.216 4.696C6.776 5.536 5.648 6.7 4.832 8.188C4.04 9.652 3.644 11.284 3.644 13.084C3.644 14.908 4.052 16.576 4.868 18.088C5.684 19.576 6.824 20.752 8.288 21.616C9.752 22.456 11.396 22.876 13.22 22.876C14.948 22.876 16.496 22.492 17.864 21.724C19.232 20.956 20.324 19.924 21.14 18.628V15.424H13.04V12.904H23.948V19.24C22.892 21.112 21.392 22.612 19.448 23.74C17.528 24.844 15.404 25.396 13.076 25.396Z" fill="url(#paint0_linear_1_16)"/>
<defs>
<linearGradient id="paint0_linear_1_16" x1="-22.2426" y1="-1.63273" x2="-7.96823" y2="-17.8027" gradientUnits="userSpaceOnUse">
<stop stop-color="#989AFA"/>
<stop offset="0.463542" stop-color="#F688F2"/>
<stop offset="0.765625" stop-color="#BFADFA"/>
<stop offset="1" stop-color="#4E9CFB"/>
</linearGradient>
</defs>
</svg>
