<svg width="36" height="20" viewBox="0 0 36 20" fill="none" xmlns="http://www.w3.org/2000/svg">
<path d="M33.4892 15.2911C32.7497 14.4047 31.9142 13.6134 31.1061 12.8481C30.8221 12.5791 30.5283 12.3009 30.2455 12.0247C30.2454 12.0246 30.2453 12.0246 30.2453 12.0245C29.8647 11.6534 29.6785 11.3899 29.659 11.1954C29.6399 11.0041 29.7706 10.7204 30.0712 10.301C30.5207 9.6701 30.9998 9.03819 31.4633 8.42712C31.8753 7.88393 32.3012 7.3222 32.7095 6.75729L32.8011 6.63046C33.5977 5.528 34.4212 4.38801 34.8626 2.99881C34.9886 2.60051 35.1195 2.0111 34.8038 1.49367C34.488 0.976102 33.9025 0.822706 33.4898 0.752449C33.2883 0.717918 33.097 0.715062 32.9191 0.715062L27.7523 0.710481C26.859 0.695606 26.2393 1.11901 25.9016 1.96926C25.6313 2.64832 25.3121 3.43529 24.9423 4.18182C24.2348 5.62302 23.3357 7.28296 22.0326 8.66598L21.9747 8.72761C21.8859 8.8223 21.741 8.97716 21.6665 9.01269C21.5254 8.92397 21.3625 8.41656 21.3699 8.15074C21.3701 8.14417 21.3702 8.13766 21.3702 8.13116L21.3656 2.16111C21.3656 2.13076 21.3635 2.10041 21.3594 2.07033C21.2435 1.21861 21.0176 0.364774 19.6696 0.0987538C19.6264 0.0901875 19.5824 0.0859375 19.5384 0.0859375H14.1639C13.1528 0.0859375 12.6179 0.548982 12.1892 1.05101C12.065 1.19737 11.7353 1.58597 11.9033 2.06103C12.0733 2.54174 12.5798 2.6377 12.7461 2.66918C13.3318 2.78034 13.6347 3.11137 13.7284 3.74421C13.9138 4.97384 13.9365 6.28927 13.8 7.88187C13.762 8.30945 13.6912 8.63444 13.577 8.90471C13.5454 8.97955 13.5176 9.0259 13.4982 9.05319C13.4673 9.04071 13.4191 9.0168 13.3524 8.97118C12.9409 8.68956 12.6307 8.25175 12.3307 7.82848C11.1326 6.13693 10.1249 4.26868 9.24945 2.11615C8.88894 1.23409 8.21121 0.741426 7.34236 0.728676C5.687 0.701117 4.15603 0.701781 2.6635 0.730801C1.95953 0.743019 1.46588 0.964614 1.196 1.38954C0.925801 1.81527 0.935695 2.35807 1.22549 3.00313C3.29707 7.60967 5.17807 10.9608 7.3243 13.8689C8.83548 15.9163 10.3567 17.3375 12.1116 18.3416C13.9554 19.3964 16.0348 19.9134 18.4472 19.9133C18.7215 19.9133 19.0006 19.9066 19.2834 19.8932C20.7718 19.8253 21.3773 19.2333 21.4434 17.7838C21.4805 17.0177 21.5657 16.397 21.8616 15.8578C21.9443 15.7069 22.0377 15.6057 22.1113 15.5872C22.1895 15.5676 22.3282 15.6155 22.4825 15.7157C22.7645 15.8989 23.0073 16.1472 23.207 16.3652C23.4094 16.5868 23.6139 16.8157 23.8119 17.0371C24.2331 17.5083 24.6687 17.9957 25.125 18.4605C26.1571 19.5126 27.347 19.9951 28.6629 19.8941L33.3913 19.8963C33.3915 19.8963 33.3915 19.8963 33.3916 19.8963C33.4066 19.8963 33.4216 19.8958 33.4366 19.8948C33.982 19.8585 34.4536 19.5565 34.7305 19.0662C35.0639 18.4757 35.0588 17.7278 34.7167 17.0647C34.3597 16.3754 33.8966 15.7821 33.4892 15.2911ZM33.551 18.4002C33.4858 18.5157 33.4054 18.5368 33.3639 18.5418L28.6365 18.5396C28.6364 18.5396 28.6362 18.5396 28.636 18.5396C28.6174 18.5396 28.5987 18.5403 28.5802 18.5419C27.6489 18.6195 26.8573 18.2921 26.0917 17.5119C25.6575 17.0695 25.2326 16.5942 24.8218 16.1345C24.6216 15.9106 24.4146 15.6789 24.2066 15.4512C23.9487 15.1695 23.6299 14.8458 23.2202 14.5798C22.6069 14.1817 22.0986 14.1937 21.7804 14.2739C21.4654 14.3533 21.0177 14.5797 20.674 15.2069C20.2289 16.0183 20.1306 16.8936 20.0907 17.7206C20.0676 18.2263 19.982 18.3599 19.9463 18.3938C19.8995 18.4383 19.743 18.5166 19.221 18.5404C16.7125 18.6583 14.6073 18.2091 12.7843 17.1661C11.1984 16.2587 9.80972 14.9554 8.41421 13.0647C6.32742 10.2373 4.49131 6.96295 2.46096 2.44805C2.38738 2.28449 2.36467 2.18242 2.3581 2.12777C2.4099 2.11077 2.5111 2.08839 2.68853 2.08514C4.16592 2.05652 5.68089 2.05572 7.32131 2.08308C7.54589 2.0864 7.80162 2.1538 7.99525 2.6276C8.90992 4.87669 9.9665 6.83399 11.2255 8.61153C11.5598 9.08334 11.9759 9.67063 12.5875 10.0891C13.1476 10.4726 13.6021 10.4543 13.8849 10.3714C14.1678 10.2885 14.5604 10.058 14.8248 9.43197C14.9954 9.02843 15.0985 8.57401 15.1496 7.99987C15.2955 6.29637 15.2696 4.88008 15.0682 3.5442C14.9263 2.5871 14.4321 1.89568 13.6537 1.54261C13.7919 1.47062 13.9477 1.44061 14.1641 1.44061H19.4683C19.7667 1.50755 19.8258 1.58617 19.8461 1.61306C19.932 1.72735 19.9812 1.99768 20.0112 2.20892L20.0157 8.12392C20.0037 8.69095 20.2793 9.94854 21.2176 10.2934C21.2253 10.2962 21.2331 10.2989 21.2409 10.3014C22.0951 10.5806 22.6602 9.97756 22.9635 9.65357L23.0176 9.59606C24.445 8.08102 25.4062 6.31078 26.1572 4.78113C26.5486 3.99124 26.8801 3.17419 27.1604 2.46989C27.3006 2.11668 27.4283 2.05851 27.7328 2.06495C27.737 2.06509 27.7411 2.06509 27.7454 2.06509L32.9187 2.06967C33.039 2.06967 33.1646 2.07106 33.262 2.08773C33.5085 2.1297 33.61 2.18083 33.6435 2.20201C33.6469 2.24126 33.6461 2.35415 33.5716 2.58975C33.1964 3.77104 32.4712 4.77469 31.7034 5.83731L31.6117 5.96434C31.2128 6.51631 30.7916 7.07166 30.3844 7.60881C29.9149 8.22777 29.4296 8.86772 28.9695 9.51358C27.9857 10.8861 28.0722 11.7969 29.2998 12.9944C29.59 13.2776 29.8873 13.5593 30.175 13.8317C30.9905 14.6042 31.7609 15.3338 32.4484 16.1576C32.8083 16.5915 33.2163 17.1126 33.5137 17.6868C33.6688 17.9874 33.6307 18.259 33.551 18.4002Z" fill="white" stroke="white" stroke-width="0.1"/>
</svg>
